<svg width="52" height="56" viewBox="0 0 52 56" fill="none" xmlns="http://www.w3.org/2000/svg">
<ellipse cx="25.9076" cy="24" rx="16.4867" ry="13.7143" fill="#313B52"/>
<path d="M9.06092 11.1801C8.76723 8.87672 11.1832 7.17672 13.3478 8.16366L20.4963 11.423C22.6039 12.384 22.894 15.1868 21.0221 16.504L14.8435 20.8516C12.9716 22.1688 10.3168 21.03 10.0308 18.7871L9.06092 11.1801Z" fill="#313B52"/>
<path d="M38.7427 8.2447C40.9322 7.30908 43.3084 9.06863 42.9567 11.3651L41.7956 18.9467C41.4535 21.1805 38.772 22.2528 36.9332 20.8912L30.8659 16.3985C29.0271 15.0368 29.3847 12.2436 31.5144 11.3336L38.7427 8.2447Z" fill="#313B52"/>
<path d="M22.5523 36.0272C24.1293 33.5973 27.686 33.5973 29.263 36.0272L34.1366 43.5367C35.8637 46.1979 33.9538 49.7143 30.7813 49.7143H21.034C17.8615 49.7143 15.9516 46.1979 17.6787 43.5367L22.5523 36.0272Z" fill="#313B52"/>
<path d="M10.2062 38.1528C13.5924 38.4629 13.1454 43.8113 17.6158 44.3523" stroke="#313B52" stroke-width="3" stroke-linecap="round"/>
</svg>
