<svg width="58" height="55" viewBox="0 0 58 55" fill="none" xmlns="http://www.w3.org/2000/svg">
<path d="M9.84375 23.7031C10.7344 21.7656 11.8516 20.3594 13.1953 19.4844C14.5391 18.6094 16.1406 18.1719 18 18.1719C20.6875 18.1719 22.75 19 24.1875 20.6562C25.625 22.3125 26.3438 24.7344 26.3438 27.9219V44H19.7812V29.7969C19.7812 27.5625 19.4062 25.8906 18.6562 24.7812C17.9062 23.6719 16.7734 23.1172 15.2578 23.1172C13.6641 23.1172 12.375 23.8047 11.3906 25.1797C10.4219 26.5391 9.9375 28.2891 9.9375 30.4297V44H3.35156V9.21875H9.9375V18.7109C9.9375 19.2734 9.92969 19.8359 9.91406 20.3984C9.89844 20.9609 9.875 21.5156 9.84375 22.0625C9.82812 22.6094 9.79688 23.1562 9.75 23.7031H9.84375Z" fill="#313B52"/>
<path d="M34.8438 23.7031C35.7344 21.7656 36.8516 20.3594 38.1953 19.4844C39.5391 18.6094 41.1406 18.1719 43 18.1719C45.6875 18.1719 47.75 19 49.1875 20.6562C50.625 22.3125 51.3438 24.7344 51.3438 27.9219V44H44.7812V29.7969C44.7812 27.5625 44.4062 25.8906 43.6562 24.7812C42.9062 23.6719 41.7734 23.1172 40.2578 23.1172C38.6641 23.1172 37.375 23.8047 36.3906 25.1797C35.4219 26.5391 34.9375 28.2891 34.9375 30.4297V44H28.3516V9.21875H34.9375V18.7109C34.9375 19.2734 34.9297 19.8359 34.9141 20.3984C34.8984 20.9609 34.875 21.5156 34.8438 22.0625C34.8281 22.6094 34.7969 23.1562 34.75 23.7031H34.8438Z" fill="#313B52"/>
<circle cx="55.5" cy="41.5" r="2.5" fill="#313B52"/>
</svg>
