<svg width="43" height="43" viewBox="0 0 43 43" fill="none" xmlns="http://www.w3.org/2000/svg">
<circle cx="21.5" cy="21.5" r="21.5" fill="#313B52"/>
<path d="M14.232 16.984C14.264 16.872 14.296 16.808 14.328 16.792C14.36 16.776 14.512 16.76 14.784 16.744C15.072 16.728 15.264 16.8 15.36 16.96C15.488 16.864 15.768 16.984 16.2 17.32C16.632 17.656 16.8 17.896 16.704 18.04C16.56 18.04 16.184 18.232 15.576 18.616C14.968 19 14.464 19.336 14.064 19.624C13.904 19.704 12.8 20.344 10.752 21.544C10.448 21.672 10.416 21.784 10.656 21.88C10.704 21.912 10.992 22.136 11.52 22.552C12.048 22.952 12.312 23.16 12.312 23.176C13.096 23.64 13.528 23.92 13.608 24.016C13.688 24.112 13.808 24.216 13.968 24.328C14.128 24.424 14.224 24.496 14.256 24.544C15.296 25.456 15.824 26.04 15.84 26.296C15.824 26.376 15.656 26.488 15.336 26.632C15.032 26.776 14.696 26.872 14.328 26.92C13.816 26.936 13.424 26.856 13.152 26.68C12.992 26.664 12.832 26.592 12.672 26.464C12.512 26.32 12.416 26.192 12.384 26.08C12.096 26.08 11.864 25.92 11.688 25.6C11.56 25.536 11.392 25.376 11.184 25.12C11.136 25.104 11.056 25.048 10.944 24.952C10.832 24.84 10.736 24.768 10.656 24.736C10.512 24.448 10.304 24.248 10.032 24.136L9.72 23.728C9.432 23.552 9.288 23.424 9.288 23.344C9.192 23.12 8.96 22.944 8.592 22.816C8.512 22.64 8.296 22.464 7.944 22.288C7.832 22.272 7.76 22.232 7.728 22.168C7.712 22.104 7.704 21.912 7.704 21.592C7.672 21.528 7.76 21.296 7.968 20.896C8.336 20.64 8.72 20.4 9.12 20.176C9.488 19.888 9.952 19.536 10.512 19.12C11.072 18.704 11.352 18.472 11.352 18.424C11.432 18.392 11.624 18.288 11.928 18.112C12.248 17.936 12.448 17.808 12.528 17.728C12.896 17.696 13.112 17.576 13.176 17.368C13.464 17.192 13.704 17.088 13.896 17.056C14.104 17.024 14.216 17 14.232 16.984ZM18.231 30.472L18.183 29.992C18.183 29.848 18.327 29.128 18.615 27.832L21.279 19.696C21.567 19.04 21.735 18.6 21.783 18.376C22.247 17.368 22.487 16.832 22.503 16.768C22.535 16.704 22.567 16.648 22.599 16.6C22.775 16.232 23.063 15.4 23.463 14.104C23.479 14.088 23.519 14.008 23.583 13.864C23.663 13.72 23.719 13.632 23.751 13.6L24.303 13.216C24.591 13.008 24.847 12.904 25.071 12.904C25.311 12.904 25.487 12.976 25.599 13.12L25.887 13.72C25.887 13.992 25.719 14.424 25.383 15.016C24.599 17.016 24.191 18.072 24.159 18.184C24.127 18.28 24.055 18.456 23.943 18.712C23.927 18.824 23.831 19.12 23.655 19.6L23.103 21.184C22.831 21.776 22.695 22.128 22.695 22.24C22.263 23.664 21.991 24.408 21.879 24.472C21.879 24.488 21.847 24.56 21.783 24.688C21.591 25.168 21.487 25.536 21.471 25.792C21.439 26.048 21.231 26.984 20.847 28.6C20.847 28.696 20.775 29 20.631 29.512C20.631 29.656 20.591 29.952 20.511 30.4C20.447 30.864 20.367 31.232 20.271 31.504C20.015 32.192 19.671 32.536 19.239 32.536C19.015 32.536 18.767 32.392 18.495 32.104C18.239 31.816 18.111 31.432 18.111 30.952L18.231 30.472ZM27.8621 16.96C27.9581 16.8 28.1421 16.728 28.4141 16.744C28.7021 16.76 28.8621 16.776 28.8941 16.792C28.9261 16.808 28.9581 16.872 28.9901 16.984C29.0061 17 29.0941 17.024 29.2541 17.056C29.4941 17.088 29.7581 17.192 30.0461 17.368C30.1101 17.576 30.3261 17.696 30.6941 17.728C30.7741 17.808 30.9661 17.936 31.2701 18.112C31.5901 18.288 31.7901 18.392 31.8701 18.424C31.8701 18.472 31.9901 18.592 32.2301 18.784C33.1101 19.424 33.7341 19.888 34.1021 20.176L35.2541 20.896C35.4621 21.296 35.5501 21.528 35.5181 21.592C35.5181 21.96 35.4941 22.168 35.4461 22.216C35.4141 22.248 35.3581 22.272 35.2781 22.288C34.9261 22.464 34.7101 22.64 34.6301 22.816C34.2621 22.944 34.0301 23.12 33.9341 23.344C33.9341 23.424 33.7901 23.552 33.5021 23.728L33.1901 24.136C32.9181 24.248 32.7101 24.448 32.5661 24.736C32.4861 24.768 32.3901 24.84 32.2781 24.952C32.1661 25.048 32.0861 25.104 32.0381 25.12C31.8301 25.376 31.6621 25.536 31.5341 25.6C31.3581 25.92 31.1261 26.08 30.8381 26.08C30.8061 26.192 30.7101 26.32 30.5501 26.464C30.3901 26.592 30.2301 26.664 30.0701 26.68C29.7981 26.856 29.4061 26.936 28.8941 26.92C28.5261 26.872 28.1821 26.776 27.8621 26.632C27.5581 26.488 27.3981 26.376 27.3821 26.296C27.3981 26.04 27.9261 25.456 28.9661 24.544C28.9981 24.496 29.0941 24.424 29.2541 24.328C29.4141 24.216 29.5101 24.136 29.5421 24.088C29.6061 23.992 30.0621 23.688 30.9101 23.176C30.9101 23.16 31.1741 22.952 31.7021 22.552C32.2301 22.136 32.5181 21.912 32.5661 21.88C32.8061 21.784 32.7741 21.672 32.4701 21.544C30.4221 20.344 29.3181 19.704 29.1581 19.624C28.2301 18.952 27.5661 18.52 27.1661 18.328C26.7661 18.136 26.5501 18.04 26.5181 18.04C26.4221 17.896 26.5901 17.656 27.0221 17.32C27.4541 16.984 27.7341 16.864 27.8621 16.96Z" fill="white"/>
</svg>
