<svg width="42" height="41" viewBox="0 0 42 41" fill="none" xmlns="http://www.w3.org/2000/svg">
<path d="M3 28.3027C3 27.4743 2.32843 26.8027 1.5 26.8027C0.671573 26.8027 0 27.4743 0 28.3027H1.5H3ZM1.5 28.3027H0L0 40.277H1.5H3L3 28.3027H1.5Z" fill="#313B52"/>
<path d="M42 28.3027C42 27.4743 41.3284 26.8027 40.5 26.8027C39.6716 26.8027 39 27.4743 39 28.3027H40.5H42ZM40.5 28.3027H39V40.2855H40.5H42V28.3027H40.5Z" fill="#313B52"/>
<line x1="2.31453" y1="38.7855" x2="39.2619" y2="38.7855" stroke="#313B52" stroke-width="3"/>
<path d="M6.40683 29.4677H34.6211V32.9628H6.40683V29.4677Z" fill="#313B52"/>
<path d="M8.09915 20.1476L34.8833 24.0185L34.3128 28.0963L7.52865 24.2254L8.09915 20.1476Z" fill="#313B52"/>
<path d="M9.90251 10.8274L35.5563 18.8739L34.3042 22.7633L8.65047 14.7169L9.90251 10.8274Z" fill="#313B52"/>
<path d="M15.9868 0L37.9275 14.3244L36.7227 16.1315L35.983 18.0456L13.5773 3.61431L15.9868 0Z" fill="#313B52"/>
<path d="M33.8915 32.3803C33.8915 32.3803 33.9761 26.7116 34.7077 23.1474C35.0801 21.3328 35.4602 20.1433 36.0401 18.614C36.7002 16.8732 37.3967 15.2005 37.8178 14.3225" stroke="#313B52"/>
</svg>
